ply
format ascii 1.0
Created by Open Asset Import Library - http://assimp.sf.net (v3.0.1262)
element vertex 36
property float x
property float y
property float z
property float nx
property float ny
property float nz
element face 12
property list uint uint vertex_indices
end_header
59.4122 -37.0158 -15.54 -1.34545e-16 -1.19973e-16 -1
-59.4122 37.0158 -15.54 -1.34545e-16 -1.19973e-16 -1
59.4122 37.0158 -15.54 -1.34545e-16 -1.19973e-16 -1
59.4122 -37.0158 -15.54 -1.34545e-16 -1.19973e-16 -1
-59.4122 -37.0158 -15.54 -1.34545e-16 -1.19973e-16 -1
-59.4122 37.0158 -15.54 -1.34545e-16 -1.19973e-16 -1
59.4122 37.0158 -15.54 1.19595e-16 1 -0
-59.4122 37.0158 15.54 1.19595e-16 1 -0
59.4122 37.0158 15.54 1.19595e-16 1 -0
59.4122 37.0158 -15.54 1.19595e-16 1 -0
-59.4122 37.0158 -15.54 1.19595e-16 1 0
-59.4122 37.0158 15.54 1.19595e-16 1 -0
59.4122 37.0158 15.54 1.34545e-16 1.19973e-16 1
-59.4122 -37.0158 15.54 1.34545e-16 1.19973e-16 1
59.4122 -37.0158 15.54 1.34545e-16 1.19973e-16 1
59.4122 37.0158 15.54 1.34545e-16 1.19973e-16 1
-59.4122 37.0158 15.54 1.34545e-16 1.19973e-16 1
-59.4122 -37.0158 15.54 1.34545e-16 1.19973e-16 1
59.4122 -37.0158 15.54 -1.19595e-16 -1 -0
-59.4122 -37.0158 -15.54 -1.19595e-16 -1 -0
59.4122 -37.0158 -15.54 -1.19595e-16 -1 -0
59.4122 -37.0158 15.54 -1.19595e-16 -1 -0
-59.4122 -37.0158 15.54 -1.19595e-16 -1 0
-59.4122 -37.0158 -15.54 -1.19595e-16 -1 -0
-59.4122 -37.0158 -15.54 -1 1.91957e-16 0
-59.4122 37.0158 15.54 -1 1.91957e-16 0
-59.4122 37.0158 -15.54 -1 1.91957e-16 0
-59.4122 -37.0158 -15.54 -1 1.91957e-16 0
-59.4122 -37.0158 15.54 -1 1.91957e-16 0
-59.4122 37.0158 15.54 -1 1.91957e-16 0
59.4122 -37.0158 15.54 1 -1.91957e-16 0
59.4122 37.0158 -15.54 1 -1.91957e-16 0
59.4122 37.0158 15.54 1 -1.91957e-16 0
59.4122 -37.0158 15.54 1 -1.91957e-16 0
59.4122 -37.0158 -15.54 1 -1.91957e-16 0
59.4122 37.0158 -15.54 1 -1.91957e-16 0
3 0 1 2
3 3 4 5
3 6 7 8
3 9 10 11
3 12 13 14
3 15 16 17
3 18 19 20
3 21 22 23
3 24 25 26
3 27 28 29
3 30 31 32
3 33 34 35
